<?xml version="1.0" encoding="utf-8"?>
<!-- Generator: Adobe Illustrator 22.0.0, SVG Export Plug-In . SVG Version: 6.00 Build 0)  -->
<svg version="1.1" id="Capa_1" xmlns="http://www.w3.org/2000/svg" xmlns:xlink="http://www.w3.org/1999/xlink" x="0px" y="0px"
	 viewBox="0 0 443.5 90" style="enable-background:new 0 0 443.5 90;" xml:space="preserve">
<style type="text/css">
	.st0{fill:#DE0713;stroke:#000000;stroke-miterlimit:10;}
	.st1{fill-rule:evenodd;clip-rule:evenodd;fill:#FFFFFF;stroke:#FFFFFF;stroke-width:4;stroke-miterlimit:10;}
	.st2{fill-rule:evenodd;clip-rule:evenodd;fill:#E22B27;}
	.st3{fill-rule:evenodd;clip-rule:evenodd;fill:#FFFFFF;}
	.st4{fill-rule:evenodd;clip-rule:evenodd;fill:#FFFFFF;stroke:#FFFFFF;stroke-width:6;stroke-miterlimit:10;}
	.st5{fill-rule:evenodd;clip-rule:evenodd;fill:#E12A27;}
	.st6{fill:none;stroke:#FFFFFF;stroke-width:2;stroke-miterlimit:10;}
	.st7{fill:#FFFFFF;}
</style>
<g>
	<g id="Layer_2">
		<g>
			<path class="st6" d="M64.9,14.7c14,0.4,28.3,3.4,40.8,12.2c2.7,1.9,5.2,4.3,7.3,6.9c7.6,9.4,7.2,20.7-0.7,29.9
				c-6.6,7.6-15.3,12.1-24.8,14.7c-19.5,5.4-38.6,4.7-57.2-3.8c-6-2.7-11.3-6.4-15.4-11.6C7.3,53.3,7.7,41.4,16,32.2
				c7.1-7.7,16.2-11.9,26-14.7C49.2,15.5,56.5,14.9,64.9,14.7z"/>
			<g>
				<path class="st7" d="M99.2,23.6C88.9,24,78.8,25.5,69,28.5c-4.1,1.3-8.2,3.1-12,5.3c-3.3,2-6.4,4.5-8.9,7.4
					c-4.9,5.8-3.7,12.2,2.6,16.5c5.4,3.7,11.4,4.6,18.2,4.4c-0.9,0.3-1.3,0.5-1.8,0.6S66,62.9,65.4,63c-12.1,2.3-23.8,1-35-4
					c-2.5-1.1-4.9-2.6-6.9-4.4C17.9,49.8,17.3,43,21.6,37c3.4-4.6,8.1-7.4,13.2-9.6c11.6-4.9,23.5-7.5,35.9-7.6
					c6.5-0.1,13,0,19.5,0.5c3.1,0.3,6.2,1.7,9.2,2.6C99.3,23.1,99.2,23.3,99.2,23.6z"/>
				<path class="st7" d="M28.1,73.6c13.3-1.5,26.2-3.1,38.3-8.6c4.5-2,8.8-4.4,12-8.2c6.1-7,4.9-14.2-3.3-18.7c-5.3-2.9-11-4-17-3.1
					c-0.5,0.1-1,0.1-1.5-0.2c3.7-0.6,7.4-1.6,11.1-1.9c10.6-0.8,20.8,0.8,30.5,5.5c1.3,0.6,2.6,1.5,3.8,2.3c8,5.8,8.3,15.3,0.9,21.8
					c-6,5.3-13.3,8.1-20.9,10.3c-11.1,3.1-22.4,4.5-33.9,4.1c-4.2-0.2-8.4-0.1-12.5-0.7C33,75.8,30.6,74.5,28.1,73.6z"/>
			</g>
		</g>
	</g>
	<g id="Layer_1">
		<g>
			<polygon class="st7" points="378.9,16.5 372.4,58.3 383.6,58.3 388,29 390.1,16.5 			"/>
			<path class="st7" d="M421.2,16.5h-12L388,54.7l-1.8,3.7h11.9l4.1-7.2h15.2l1.7,7.2H431L421.2,16.5z M406.4,42.9l4.6-9.4l2.1-4.1
				l2.6,13.5H406.4z"/>
			<polygon class="st7" points="308.8,16.5 307.3,25.7 316.4,25.7 311.4,58.3 322.5,58.3 327.6,25.7 336.8,25.7 338.1,16.5 			"/>
			<path class="st7" d="M371,29.4c1.5-9-4.3-12.9-12.8-12.9h-16.5l-5.2,31.9l-1.5,10h11.1l2.6-16l5.9,11.8l2,4.2h13.9l-10.8-17.2
				C366.1,40.1,370.2,35.1,371,29.4 M359.5,29.9c-0.6,3-2.6,4.2-4.8,4.8c-1.3,0.4-2.6,0.6-3.7,0.6h-1.1l1.7-10.5h3.2
				C357.4,25.1,359.8,26.3,359.5,29.9"/>
			<path class="st7" d="M297.3,16.5h-12.2l-17.8,32.1l-5.2,9.8H274l4.1-7.2h15.1l1.7,7.2h11.9L297.3,16.5z M282.3,42.9l4.6-9.4
				l2-4.1l2.6,13.5H282.3z"/>
			<path class="st7" d="M267.3,18c-2.2-1.1-5-1.5-8.2-1.5h-16.9l-6.7,41.8h11.1l2.3-13.8h6.6c4.8-0.2,8.9-1.5,11.7-3.9
				c2.8-2.4,4.5-5.7,5.2-10.3C273.4,23.9,271.4,20,267.3,18 M261,30.5c-0.7,3.5-2.8,4.6-5.4,5c-1.1,0.2-2.4,0.2-3.5,0.2h-1.9
				l1.7-10.5h3.7C258.9,25.2,261.5,26.1,261,30.5"/>
			<polygon class="st7" points="208.1,58.3 208.1,57.6 214.8,16.5 225.9,16.5 220.7,49.1 234.1,49.1 232.6,58.3 			"/>
			<path class="st7" d="M162.6,18.1c-2.8-1.2-5.7-1.8-8.8-1.8c-5.8,0-12,2.5-16.6,6.5c-4.4,3.8-7.4,9.1-8.3,14.5
				c-0.9,5.9,0.3,11,4.2,15.1c3.5,3.7,8.6,5.8,14.3,5.8c3.3,0,6-0.7,9.7-1.7l2-12.4c-2.6,2.6-6.3,4.2-9.9,4.2
				c-6.5,0-10.2-4.6-9.2-10.9c0.9-6.1,6-11.1,12.5-11.1c3.5,0,6.9,1.6,8.5,4.4l1.6-10l0.5-2.5L162.6,18.1z"/>
			<path class="st7" d="M206.8,31.3c-1-9-9.4-14.8-18.9-14.8c-1,0-2.1,0-3.1,0.2c-10.2,1.2-20.1,8.8-22,19.3v0.7
				c-0.5,2.9-0.5,5.7,0,8.1c1.7,8.3,8.7,13.6,18.6,13.6c1,0,2.3-0.2,3.5-0.3c11.3-1.4,20.3-9.8,22-21.4v-0.9
				C207,34.2,207,32.7,206.8,31.3 M196.1,36.8c-1,6-5.9,10.5-11.3,11.4c-0.7,0-1.4,0.2-1.9,0.2c-6,0-10.4-4.8-9.4-11.6
				c0.7-5.2,5.7-9.7,11.3-10.5h1.6C192.6,26.3,197,31.3,196.1,36.8"/>
		</g>
	</g>
	<g>
		<path class="st7" d="M128.2,78.9l4.4-14.3h4.2l1,5.5c0.1,0.3,0.1,0.7,0.2,1.1s0.1,0.8,0.1,1.2c0.1-0.3,0.2-0.6,0.3-0.9
			s0.3-0.7,0.5-1.2l2.6-5.6h4.2l0.3,14.3h-3.5l0-6.8c0-0.4,0-0.8,0-1.1s0-0.8,0.1-1.1c-0.1,0.5-0.4,1.1-0.7,1.8
			c-0.1,0.1-0.1,0.3-0.1,0.3l-3.3,7h-2.3l-1.3-6.9c-0.1-0.4-0.1-0.7-0.2-1.1s-0.1-0.7-0.2-1.1c-0.1,0.4-0.1,0.8-0.2,1.2
			s-0.2,0.7-0.2,1.1l-2,6.8H128.2z"/>
		<path class="st7" d="M152,75.8h4.4l-0.5,3.2h-8.2l2.3-14.3h8.2l-0.5,3.3h-4.4l-0.4,2.3h4.1l-0.5,3.1h-4.1L152,75.8z"/>
		<path class="st7" d="M162.4,78.9h-3.8l2.3-14.3h3.8c1.1,0,2,0,2.6,0.1s1,0.2,1.5,0.4c0.7,0.3,1.3,0.8,1.6,1.4s0.6,1.4,0.6,2.2
			c0,1.2-0.4,2.2-1.1,3s-1.7,1.3-2.9,1.5l3.5,5.6H166l-2.8-5.5L162.4,78.9z M163.6,71.2h1.2c0.8,0,1.3-0.2,1.7-0.5s0.6-0.8,0.6-1.5
			c0-0.6-0.2-1.1-0.6-1.3s-1-0.4-1.8-0.4h-0.6L163.6,71.2z"/>
		<path class="st7" d="M184.7,65.3l-0.6,3.9c-0.5-0.5-1.1-0.8-1.8-1.1s-1.3-0.4-2-0.4c-1.2,0-2.2,0.4-2.9,1.2s-1.2,1.9-1.2,3.2
			c0,1.2,0.3,2.1,1,2.7s1.6,1,2.7,1c0.5,0,1-0.1,1.6-0.2s1.1-0.3,1.7-0.6l-0.6,3.7c-0.5,0.2-1,0.3-1.6,0.4s-1.2,0.1-1.9,0.1
			c-2,0-3.7-0.6-4.9-1.9s-1.8-2.9-1.8-5c0-1,0.2-2,0.5-2.9s0.8-1.7,1.4-2.5c0.7-0.9,1.6-1.5,2.7-2s2.3-0.7,3.6-0.7
			c0.8,0,1.5,0.1,2.2,0.3S184,65,184.7,65.3z"/>
		<path class="st7" d="M183.3,78.9l7.2-14.3h4.8l3,14.3h-3.9l-0.6-2.7h-5l-1.4,2.7H183.3z M190.3,73.1h3l-0.7-3.3
			c-0.1-0.3-0.1-0.6-0.1-0.9s-0.1-0.5-0.1-0.7c-0.1,0.4-0.3,0.7-0.4,1s-0.2,0.5-0.3,0.7L190.3,73.1z"/>
		<path class="st7" d="M199.1,78.9l2.3-14.3h4.4l3,7.1c0,0.1,0.1,0.2,0.1,0.3c0.3,0.8,0.6,1.5,0.7,2v-0.4c0-0.3,0-0.5,0-0.9
			s0.1-0.7,0.1-1.1l1.1-7h3.8l-2.3,14.3h-4.2l-3.2-7.3c-0.2-0.5-0.4-1-0.5-1.3s-0.2-0.7-0.3-1v0.4c0,0.3,0,0.5,0,0.8
			s-0.1,0.7-0.1,1.2l-1.1,7.2H199.1z"/>
		<path class="st7" d="M217.4,78.9l1.7-11h-3.2l0.5-3.3h10.1L226,68H223l-1.7,11H217.4z"/>
		<path class="st7" d="M226.4,78.9l2.3-14.3h3.9l-2.3,14.3H226.4z"/>
		<path class="st7" d="M233.4,78.9l2.3-14.3h3.8l-1.7,10.9h4.7l-0.5,3.4H233.4z"/>
	</g>
</g>
</svg>
