<?xml version="1.0" encoding="utf-8"?>
<!-- Generator: Adobe Illustrator 22.0.0, SVG Export Plug-In . SVG Version: 6.00 Build 0)  -->
<svg version="1.1" id="Capa_1" xmlns="http://www.w3.org/2000/svg" xmlns:xlink="http://www.w3.org/1999/xlink" x="0px" y="0px"
	 viewBox="0 0 509 120" style="enable-background:new 0 0 509 120;" xml:space="preserve">
<style type="text/css">
	.st0{fill:#FFFFFF;}
	.st1{fill:none;}
</style>
<g>
	<path class="st0" d="M155.4,38.1c11.4,0,17.1,3.8,21.5,10c0.6,0.9,0.7,1.4-0.5,1.7c-0.4,0.1-0.8,0.2-1.1,0.4
		c-3.1,1.6-5.4,1.9-8.4-1.2c-4.8-4.9-13.1-3.8-17.8,1.5c-4.6,5.2-4.1,13.1,1.1,17.9c5.1,4.7,13.1,4.7,17.7-0.4
		c1.7-1.9,3-2.1,5.3-1.2c4.8,1.9,4.8,1.8,1.5,5.6c-6.2,7.3-16.7,9.5-25.3,5.1c-8.7-4.4-13.1-14.3-10.8-23.9
		C140.9,44.6,149.4,38.1,155.4,38.1z"/>
	<path class="st0" d="M236.3,59c0,5.2,3.1,10,7.9,11.8c5,2,10,1.4,13.7-2.6c2-2.2,3.7-2.3,6.1-1.2c4,1.7,4.1,1.5,1.3,5
		c-7.6,9.4-21.3,10.5-30.2,2.3c-9-8.2-9.1-22.1-0.3-30.5c8.6-8.3,22.3-7.5,30.1,1.6c3.3,3.8,3.2,3.7-1.3,5.6
		c-2.2,0.9-3.7,0.9-5.4-1.2C254.9,46,249,45,244.3,47C239.4,48.9,236.3,53.7,236.3,59z"/>
	<path class="st0" d="M108.4,44.4c2.8-4.5,6.7-5.8,11.4-5.1c5.9,0.8,10.1,5.4,11.1,11.9c0.7,4.5,0.3,9.1,0.3,13.6c0.1,4-0.1,8,0,12
		c0,1.6-0.5,2-2.1,2c-5.7,0.1-5.7,0.1-5.7-5.6c0-6.1,0-12.1,0-18.2c0-3.6-2-6.5-5.1-7.7c-3.2-1.2-6.5-0.3-8.9,2.3
		c-0.9,1-1.3,2.1-1.3,3.5c0,7.8,0,15.7,0.1,23.5c0,1.9-0.6,2.3-2.3,2.2c-5.4-0.1-5.4,0-5.4-5.3c0-9.8,0-19.5,0-29.3
		c0-3.5-0.4-3.1,3.3-3.1c0.3,0,0.6,0,1,0C107,40.9,109.1,40.8,108.4,44.4z"/>
	<path class="st0" d="M413.9,63.7c0-4.3,0-8.6,0-13c0-1.3-0.2-2-1.8-2c-5.2-0.1-5.1-0.2-5.2-5.3c0-1.9,0.5-2.4,2.4-2.4
		c4.5,0.1,4.5,0,4.5-4.5c0-2.6-0.2-5.3,0.1-7.9c0.3-3.3,3-1.1,4.5-1.5c1-0.2,3.1-1.2,3.1,1.5c0,3.5,0.1,7,0,10.6
		c0,1.5,0.4,1.9,1.9,1.9c4.8,0,4.6,0.1,4.9,4.9c0.1,2.5-0.8,2.9-3,2.8c-3.7-0.2-3.8,0-3.8,3.7c0,8-0.1,16,0,24
		c0,1.8-0.5,2.3-2.3,2.3c-5.4,0-5.4,0-5.4-5.3C413.9,70.3,413.9,67,413.9,63.7z"/>
	<path class="st0" d="M91,49.4c0,9.1,0,18.2,0,27.3c0,1.5-0.3,2.1-2,2.1c-5.8,0-5.8,0.1-5.8-5.7c0-16.8,0-33.6,0-50.4
		c0-1.9,0.5-2.4,2.4-2.4c5.4,0.1,5.4,0,5.4,5.3C91,33.6,91,41.5,91,49.4z"/>
	<path class="st0" d="M282.7,45.5c2.4-2.6,4.9-4.5,8.2-5.1c1.3-0.2,2,0,1.8,1.5c-0.1,0.7-0.1,1.4,0,2.2c0.3,2.6,0,4.2-3.3,4.9
		c-4,0.8-6.9,5.7-7,10.2c-0.1,5.8-0.1,11.7,0,17.5c0,1.6-0.4,2.2-2.1,2.2c-5.6,0-5.6,0.1-5.6-5.6c0-9.9,0-19.8,0-29.7
		c0-1.9,0.5-2.7,2.4-2.4c0.2,0,0.5,0,0.7,0C282.1,41.1,282.1,41.1,282.7,45.5z"/>
	<path class="st0" d="M399.6,60.1c0,5.5-0.1,11,0,16.5c0,1.6-0.3,2.2-2.1,2.2c-5.6,0-5.6,0-5.6-5.6c0-10,0-20,0-30
		c0-1.7,0.4-2.2,2.1-2.2c5.6,0,5.6-0.1,5.6,5.6C399.6,51.1,399.6,55.6,399.6,60.1z"/>
	<path class="st0" d="M390.5,31.1c0-3,2.3-5.3,5.3-5.3c3,0,5.4,2.5,5.4,5.5c-0.1,3-2.4,5.2-5.4,5.2
		C392.7,36.3,390.5,34.1,390.5,31.1z"/>
	<path class="st0" d="M404.3,101.4c-0.5,1.5,1.1,3.4-1.1,4.4c-2.4,1.1-5.8,0.4-7.6-1.3c-3.3-3.2-3.4-10.1-0.1-13.4
		c2-2,4.5-2.3,7.1-1.6c0.7,0.2,1.5,0.4,1.2,1.4c-0.3,1-1.1,0.2-1.6,0.1c-3.7-0.9-6.5,0.8-7.3,4.6c-0.9,4.5,1.2,8.5,4.8,9.1
		c2.2,0.3,3-0.3,2.9-2.4c0-1.7,1-4.2-2.4-3.8c-0.3,0-0.5-0.3-0.5-0.7c0-0.3,0.1-0.6,0.4-0.8c1.9-1.1,4.2,0.2,4.2,2.4
		C404.3,100.2,404.3,100.8,404.3,101.4z"/>
	<path class="st0" d="M383.3,97.8c0-2.2,0-4.5,0-6.7c0-0.5-0.2-1.4,0.4-1.5c2.1-0.4,4.3-0.3,6.4-0.1c0.3,0,0.5,0.4,0.3,0.7
		c-0.1,0.2-0.4,0.5-0.7,0.5c-1,0.1-1.9,0.1-2.9,0.1c-1.5-0.1-2,0.5-1.9,1.9c0.1,0.5,0.1,1,0,1.4c-0.3,2,0.4,2.7,2.5,2.6
		c0.9-0.1,2.7-0.7,2.7,0.8c0,1.2-1.7,0.7-2.6,0.6c-1.9-0.2-2.9,0.4-2.5,2.5c0.1,0.7,0.1,1.4,0,2.2c-0.1,1.3,0.3,1.9,1.7,1.8
		c1-0.1,2.1,0,3.1,0c0.5,0,0.9,0.3,0.9,0.9c0,0.6-0.4,0.8-0.9,0.8c-1.8,0-3.7,0-5.5,0c-1.1,0-1-0.8-1-1.5
		C383.3,102.4,383.3,100.1,383.3,97.8z"/>
	<path class="st0" d="M69.2,85.2c-0.6-0.1-1.2-0.1-1.9-0.3c-0.8-0.2-1.6-0.4-1.8-1.4c-0.2-0.9,0.3-1.6,1-2.1
		c2.9-2.2,6.1-2.9,9.7-2.4c0.8,0.1,1.6,0.5,1.8,1.4c0.2,0.9-0.3,1.5-0.9,2.1C74.8,84.5,72.1,85,69.2,85.2z"/>
	<path class="st0" d="M407.7,96.1c0-1.8,0-3.5,0-5.3c0-0.6-0.3-1.4,0.8-1.4c0.9,0.1,0.8,0.9,0.8,1.5c0,2.8,0,5.6,0,8.4
		c0,0.9,0.1,1.8,0.2,2.6c0.3,1.8,1.4,2.9,3.2,2.9c1.9,0,3-1.2,3.1-3c0.2-3.2,0.1-6.4,0.2-9.6c0-0.6,0-1.3,0-1.9
		c0-0.6,0.3-0.9,0.9-0.9c0.5,0,0.7,0.4,0.6,0.8c-0.1,4.1,0.4,8.3-0.3,12.4c-0.4,2.5-2.2,3.7-4.9,3.6c-2.6-0.1-4.1-1.4-4.6-4
		c-0.2-1-0.1-2.1-0.1-3.1C407.7,98.2,407.7,97.1,407.7,96.1z"/>
	<path class="st0" d="M67.9,72.2c1.3,0.2,3.3-0.3,3.7,1.5c0.4,1.9-1.6,2.5-3.1,3.1c-1.9,0.8-4,1.2-6.1,1c-1.1-0.1-2.4-0.1-2.8-1.4
		c-0.3-1.5,1-2.1,2-2.6C63.5,72.7,65.6,72.3,67.9,72.2z"/>
	<path class="st0" d="M184.8,104c2,0.7,4,1.7,5.4-0.8c0.9-1.8,0.1-3.2-2.6-5.2c-0.6-0.4-1.2-0.8-1.7-1.3c-1.5-1.5-1.9-4-0.8-5.7
		c1-1.5,3.8-2.3,5.6-1.5c0.6,0.2,1,0.6,0.9,1.2c-0.2,0.9-0.8,0.5-1.3,0.3c-1.5-0.5-3-0.5-3.8,1.1c-0.8,1.6,0.1,2.9,1.4,3.9
		c1,0.8,2.1,1.5,3,2.4c1.7,1.6,1.9,4.3,0.6,6.1c-1.2,1.8-4,2.4-6.1,1.5C184.4,105.5,184.5,104.9,184.8,104z"/>
	<path class="st0" d="M380.5,101.9c0,3.4-3.3,5.6-6.6,4.1c-0.7-0.3-1.2-0.5-1-1.4c0.3-1.2,1-0.3,1.5-0.2c1.7,0.6,3.2,0.5,4.1-1.2
		c0.8-1.7,0.3-3.1-1.2-4.2c-1-0.8-2.1-1.5-3.1-2.3c-1.7-1.5-2-3.9-0.9-5.7c1-1.5,3.7-2.3,5.6-1.6c0.6,0.2,1,0.5,0.8,1.2
		c-0.2,0.9-0.8,0.5-1.3,0.3c-1.5-0.4-3-0.4-3.7,1.2c-0.8,1.7,0.3,2.8,1.6,3.9C378.1,97.5,380.7,98.6,380.5,101.9z"/>
	<path class="st0" d="M55.9,80.3c0,0,0.5,0,1,0.1c0.8,0.1,1.7,0.3,1.9,1.1c0.3,0.9-0.3,1.5-1,2c-2.6,1.7-5.4,2.4-8.4,2.1
		c-0.8-0.1-1.7-0.3-2-1.2c-0.3-1,0.6-1.6,1.3-2.1C50.7,81,53,80.3,55.9,80.3z"/>
	<path class="st0" d="M45.2,77.1C44.7,77,44,77,43.4,76.9c-0.6-0.1-1.3-0.4-1.5-1.1c-0.2-0.8,0.3-1.4,0.9-1.8
		c2.8-1.8,5.9-2.4,9.2-1.8c0.6,0.1,1.3,0.4,1.4,1.1c0.1,0.7-0.4,1.2-0.9,1.6C50.4,76.4,47.9,76.9,45.2,77.1z"/>
	<path class="st0" d="M88.8,97.3c-1.6,0-3,0-3.4-1.4c-0.4-1.3,0.7-2,1.6-2.7c1.9-1.4,4.1-2,6.5-1.8c0.8,0.1,1.6,0.3,1.9,1.2
		c0.3,0.9-0.1,1.6-0.7,2.1C92.9,96.5,90.7,97.1,88.8,97.3z"/>
	<path class="st0" d="M63.6,65.3c1.2,0.2,3.5-0.5,3.7,1.5c0.2,1.9-2,2.2-3.4,2.8c-1.8,0.7-3.7,0.8-5.6,0.6c-0.9-0.1-2.1-0.3-2.3-1.4
		c-0.2-1.1,0.8-1.7,1.6-2.1C59.4,65.7,61.3,65.3,63.6,65.3z"/>
	<path class="st0" d="M232.9,99.8c0-1.6,0-3.2,0-4.8c0-0.6,0.2-1.5,0.7-1.1c1.3,1.2,2.2,0,3.2-0.2c2.2-0.3,3.8,0.6,3.9,2.8
		c0.2,2.9,0.1,5.7,0.1,8.6c0,0.5-0.1,1-0.7,1c-0.8,0-0.8-0.7-0.8-1.2c0-2.2,0-4.5,0-6.7c0-1.5-0.1-3.1-2.1-3.1c-1.9,0-2.6,1.4-2.7,3
		c-0.1,2,0,4-0.1,6c0,0.7,0.5,1.9-0.7,1.9c-1.3,0.1-0.8-1.1-0.8-1.8C232.9,102.8,233,101.3,232.9,99.8
		C232.9,99.8,232.9,99.8,232.9,99.8z"/>
	<path class="st0" d="M356.7,99.8c0-1.6,0-3.2,0-4.8c0-0.5,0.1-1.3,0.5-1.1c1.7,1.3,3.1-0.5,4.7-0.2c1.6,0.3,2.6,1.2,2.7,2.6
		c0.2,2.9,0.1,5.9,0.2,8.8c0,0.5-0.1,1-0.7,1c-0.8,0-0.8-0.7-0.8-1.2c0-2.3,0-4.6,0-6.9c0-1.3-0.2-2.7-1.9-2.8
		c-1.8-0.2-2.7,1-2.9,2.6c-0.2,2.3-0.1,4.6-0.1,6.9c0,0.6,0.2,1.4-0.7,1.5c-1,0.1-0.8-0.8-0.8-1.4
		C356.8,103.1,356.8,101.5,356.7,99.8C356.8,99.8,356.8,99.8,356.7,99.8z"/>
	<path class="st0" d="M78,91.4c-1.1-0.1-2.5,0-2.9-1.3c-0.5-1.4,0.7-2.2,1.7-2.8c2-1.2,4.2-1.9,6.6-1.5c0.8,0.1,1.6,0.4,1.8,1.4
		c0.1,0.8-0.3,1.4-0.9,1.8C82.6,90.7,80.3,91.2,78,91.4z"/>
	<path class="st0" d="M28.9,85.7c-0.5-0.1-1.1-0.1-1.6-0.2c-0.6-0.1-1.3-0.3-1.4-1.1c-0.1-0.6,0.3-1.1,0.8-1.4
		c2.8-1.9,5.9-2.7,9.3-2.3c0.6,0.1,1.4,0.2,1.5,0.9c0.2,0.8-0.4,1.3-1,1.7C34.2,85,31.6,85.4,28.9,85.7z"/>
	<path class="st0" d="M42.7,68.3c-1.2-0.3-3.1,0.2-3.4-1.4c-0.3-1.8,1.6-2.1,2.9-2.5c2.3-0.8,4.6-1.2,7-0.5c0.6,0.2,1.1,0.4,1.2,1
		c0.2,0.7-0.3,1.2-0.9,1.6C47.6,67.8,45.2,68.1,42.7,68.3z"/>
	<path class="st0" d="M30.4,52c1.3,0.2,3.9-0.4,4.1,1.4c0.2,2-2.4,2.1-4,2.5c-1.8,0.5-3.8,0.6-5.7,0.2c-0.9-0.2-2-0.2-2.1-1.2
		c-0.2-1.2,1-1.5,1.9-1.8C26.3,52.3,28.1,52,30.4,52z"/>
	<path class="st0" d="M58.1,62.8c-1.3-0.2-3.4,0.3-3.7-1.4c-0.3-2,1.9-2.2,3.4-2.6c2.1-0.6,4.2-0.8,6.3-0.2c0.6,0.2,1.3,0.4,1.4,1.1
		c0.2,0.9-0.4,1.3-1,1.7C62.6,62.5,60.5,62.8,58.1,62.8z"/>
	<path class="st0" d="M113.1,105.6c-0.8-0.1-1.9-0.1-2.3-1.2c-0.4-1,0-1.8,0.7-2.6c1.5-1.5,3.2-2.2,5.3-2.3c1,0,2,0.2,2.4,1.2
		c0.4,1-0.2,1.9-0.9,2.5C116.9,104.8,115.1,105.5,113.1,105.6z"/>
	<path class="st0" d="M42.9,59.9c-1.3-0.3-3.5,0.3-3.7-1.5c-0.3-1.8,2-2,3.3-2.4c1.7-0.5,3.4-0.7,5.2-0.5c1,0.2,2.3,0.1,2.5,1.4
		c0.2,1.3-1.1,1.6-2,2C46.6,59.6,44.8,59.8,42.9,59.9z"/>
	<path class="st0" d="M70.2,101c-1.2-0.1-2.4,0.1-2.8-1.2c-0.4-1.1,0.5-1.8,1.3-2.4c1.9-1.4,4-2,6.3-1.9c0.8,0,1.7,0.1,2,1
		c0.4,1-0.3,1.7-1,2.2C74.3,100.2,72.2,100.8,70.2,101z"/>
	<path class="st0" d="M41.9,90.3c0.9,0.1,2.2-0.3,2.5,1.1c0.3,1.3-0.9,1.8-1.8,2.3c-2,1.2-4.1,1.8-6.4,1.7c-0.9,0-2.1,0.1-2.4-1.1
		c-0.3-1.2,0.7-1.7,1.5-2.2C37.4,90.9,39.5,90.3,41.9,90.3z"/>
	<path class="st0" d="M45.3,52c-1.3-0.3-3.9,0.3-4-1.6c-0.1-1.9,2.4-1.9,3.9-2.3c1.8-0.4,3.6-0.5,5.4,0c0.7,0.2,1.5,0.4,1.6,1.2
		c0.1,1-0.7,1.3-1.4,1.6C49.1,51.7,47.3,52,45.3,52z"/>
	<path class="st0" d="M58.7,55.8c-1.3-0.2-3.7,0.3-3.9-1.5c-0.2-2.1,2.2-2,3.7-2.5c1.5-0.4,3.2-0.4,4.7-0.2c0.9,0.1,2.1,0.2,2.3,1.3
		c0.2,1.4-1.1,1.6-2,2C62.1,55.6,60.5,55.8,58.7,55.8z"/>
	<path class="st0" d="M100.7,101.9c-1.4,0-2.5-0.1-2.9-1.2c-0.4-1.1,0.4-2,1.2-2.6c1.7-1.3,3.6-2,5.8-1.7c1.8,0.2,2.4,1.7,1.1,3.1
		C104.5,101.1,102.5,101.8,100.7,101.9z"/>
	<path class="st0" d="M63.4,88.5c1.3,0.1,2.7-0.2,3,1.1c0.3,1.3-0.9,1.9-1.9,2.5c-2,1.1-4.1,1.7-6.4,1.4c-0.7-0.1-1.5-0.2-1.7-1.1
		c-0.2-0.8,0.3-1.4,0.9-1.8C59.2,89.2,61.2,88.6,63.4,88.5z"/>
	<path class="st0" d="M195.1,93.9c0.3,0,0.6,0.1,1,0.1c0.6,3.3-0.1,6.6,0.4,9.9c0.7,0.9,1.4,2.1,2.8,0.9c0.8-0.2,1.2-0.8,1.6-1.5
		c0.6-2.6,0.2-5.3,0.3-7.9c0-0.6-0.4-1.6,0.8-1.6c1,0,0.7,0.9,0.7,1.5c0,3.1,0.1,6.2,0.1,9.3c0,1.1,0,2.3-1.5,0.9
		c-0.6-0.6-1,0-1.6,0.3c-2.3,1.1-3.6,0.6-4.6-1.8C194.8,100.7,194.7,97.3,195.1,93.9z"/>
	<path class="st0" d="M24.6,65.5c-1.3-0.2-3.2,0.2-3.4-1.3c-0.2-1.5,1.7-1.8,2.9-2.2c2.1-0.7,4.2-0.9,6.3-0.6
		c0.7,0.1,1.5,0.2,1.7,1.1c0.1,0.8-0.6,1.2-1.2,1.6C28.9,65,26.8,65.3,24.6,65.5z"/>
	<path class="st0" d="M279.9,97.3c0,2.5,0,4.9,0,7.4c0,0.7,0.1,1.6-1,1.5c-0.9-0.1-0.7-0.9-0.7-1.5c0-5,0-10.1,0-15.1
		c0-0.6-0.2-1.4,0.7-1.5c1.1-0.1,1,0.8,1,1.5C279.9,92.2,279.9,94.8,279.9,97.3z"/>
	<path class="st0" d="M243.1,100.1c0-4.4,2.2-6.8,5.9-6.3c0.7,0.1,1.6,0,1.5,1.1c-0.1,1.4-1.1,0.5-1.6,0.4c-2.6-0.1-4.1,1.5-4.1,4.4
		c0,3.3,1.6,5.3,4.3,5c0.6,0,1.3-0.7,1.5,0.3c0.2,1-0.7,1.1-1.4,1.2C245.7,106.9,243.1,104.3,243.1,100.1z"/>
	<path class="st0" d="M83.2,107c-0.9-0.1-2,0.1-2.4-1c-0.3-1.1,0.4-1.8,1.2-2.4c1.5-1.2,3.3-1.9,5.3-1.9c0.9,0,1.9,0,2.2,1
		c0.3,1-0.3,1.7-1,2.3C87,106.2,85.3,106.9,83.2,107z"/>
	<path class="st0" d="M127,107.8c-1.3,0-2.5-0.2-2.6-1.8c-0.2-1.8,2.8-4,5.3-4c1.3,0,2.5,0.3,2.5,1.9
		C132.1,105.7,129.4,107.7,127,107.8z"/>
	<path class="st0" d="M51.7,40.9c1.4,0.3,3.9-0.3,4.1,1.6c0.2,1.9-2.4,1.8-3.9,2.1c-1.8,0.4-3.6,0.3-5.4-0.2
		c-0.6-0.2-1.3-0.4-1.3-1.2c0-0.6,0.5-1,1-1.2C47.9,41.1,49.7,40.9,51.7,40.9z"/>
	<path class="st0" d="M63,45.3c1.2,0,2.4-0.1,3.5,0.5c1.2,0.7,1.3,1.5,0.1,2.1c-2.7,1.4-5.6,1.6-8.5,0.8c-0.5-0.2-1.1-0.5-1.1-1.1
		c0-0.6,0.4-1,1-1.3C59.5,45.5,61.2,45.2,63,45.3z"/>
	<path class="st0" d="M40.1,36.3c1-0.1,2.3,0.1,3.5,0.6c0.5,0.2,0.9,0.4,0.9,1c0,0.5-0.4,0.9-0.8,1.1c-3,1.2-6,1.4-9.1,0.5
		c-1.3-0.4-1.3-1.4-0.1-2C36.1,36.5,37.9,36.3,40.1,36.3z"/>
	<path class="st0" d="M432.8,97.7c0-2.3,0-4.6,0-6.9c0-0.6,0-1.4,0.9-1.4c0.9,0,0.8,0.8,0.8,1.4c0,4.7,0,9.4,0,14.1
		c0,0.6,0.1,1.4-0.9,1.4c-0.9,0-0.8-0.8-0.8-1.4C432.8,102.5,432.8,100.1,432.8,97.7z"/>
	<path class="st0" d="M25.2,71.8c2.1-1.1,4.3-1.1,6.5-0.8c0.7,0.1,1.5,0.3,1.6,1.1c0.1,0.8-0.6,1.3-1.2,1.6c-0.9,0.5-1.8,1-2.9,1
		c-1.9,0.2-3.8,0.6-5.7,0.3c-1.1-0.2-1.9-0.5-1.3-1.9l0,0C23.2,72.6,24.2,72.2,25.2,71.8z"/>
	<path class="st0" d="M62.2,32.9c-1.3,0.1-2.6,0-3.8-0.5c-0.6-0.2-1.3-0.5-1.3-1.2c0-0.7,0.7-1,1.3-1.2c2.6-0.8,5.2-0.8,7.8,0
		c0.6,0.2,1.3,0.5,1.3,1.2c0,0.7-0.7,1-1.3,1.2C64.9,32.9,63.6,32.9,62.2,32.9z"/>
	<path class="st0" d="M55.2,38.3c-1.3-0.4-4.2,0.5-4.2-1.7c-0.1-1.8,2.7-1.6,4.4-1.8c1.5-0.2,3-0.1,4.5,0.4c0.6,0.2,1.3,0.5,1.2,1.3
		c0,0.6-0.6,0.9-1.1,1.1C58.6,38.2,57.1,38.3,55.2,38.3z"/>
	<path class="st0" d="M46.8,30c1.5,0,2.9-0.1,4.1,0.6c1.1,0.6,1.2,1.4,0,1.9c-2.8,1.2-5.7,1.2-8.7,0.3c-0.5-0.1-0.9-0.5-0.9-1
		c0-0.5,0.4-0.9,0.9-1C43.7,30.1,45.3,29.9,46.8,30z"/>
	<path class="st0" d="M48.1,104c-1,0-2.1,0.1-2.4-0.9c-0.3-1,0.6-1.6,1.3-2c1.8-1.2,3.8-1.9,6.1-1.7c0.5,0,1.2,0.1,1.4,0.7
		c0.3,0.7-0.1,1.2-0.6,1.7C52.1,103.2,50.1,103.9,48.1,104z"/>
	<path class="st0" d="M300.2,97.2c0-2.6,0-5.1,0-7.7c0-0.6-0.2-1.4,0.8-1.4c0.8,0.1,0.6,0.8,0.6,1.3c0,5.1,0,10.2,0,15.3
		c0,0.6,0.3,1.4-0.8,1.4c-0.8-0.1-0.6-0.8-0.6-1.3C300.2,102.3,300.2,99.8,300.2,97.2z"/>
	<path class="st0" d="M31.5,47.3c-1.1-0.2-3.1,0.3-3.3-1.2c-0.2-1.6,1.9-1.6,3.1-1.9c1.7-0.4,3.5-0.5,5.2,0c0.5,0.2,1.2,0.3,1.2,1
		c0,0.7-0.5,0.9-1.1,1.2C35.1,47.1,33.4,47.3,31.5,47.3z"/>
	<path class="st0" d="M306.4,100.1c0,1.7,0,3.3,0,5c0,0.6-0.1,1.1-0.9,1.2c-0.8,0-0.9-0.5-0.9-1.1c0-3.4,0-6.9,0-10.3
		c0-0.7,0.3-1.1,1-1c0.6,0,0.8,0.5,0.8,1C306.4,96.6,306.4,98.3,306.4,100.1z"/>
	<path class="st0" d="M140.5,108.4c-0.9-0.1-1.9-0.3-2-1.7c-0.1-1.5,2.1-3.3,4-3.3c1.2,0,2.1,0.4,2.2,1.7
		C144.9,106.6,142.6,108.4,140.5,108.4z"/>
	<path class="st0" d="M65.3,43.1c-1.6-0.3-3.9,0.2-4-1.5c-0.1-1.9,2.2-1.5,3.5-1.8c1.2-0.3,2.4-0.1,3.5,0.2c0.7,0.2,1.5,0.3,1.5,1.2
		c0,0.9-0.8,1.1-1.5,1.3C67.4,42.7,66.3,42.9,65.3,43.1z"/>
	<path class="st0" d="M230.1,100.1c0,1.7,0,3.4,0,5c0,0.6-0.1,1.2-0.9,1.1c-0.6-0.1-0.7-0.6-0.7-1.1c0-3.4,0-6.9,0-10.3
		c0-0.6,0.2-1.1,0.9-1.1c0.6,0.1,0.7,0.5,0.7,1C230.1,96.6,230.1,98.4,230.1,100.1z"/>
	<path class="st0" d="M69.7,37.8c-1.4-0.3-3.8,0.2-3.8-1.6c0-1.6,2.3-1.4,3.8-1.6c0.5-0.1,1.1-0.1,1.7,0c1.2,0.2,3.1,0,3,1.6
		c0,1.4-1.9,1.4-3.1,1.6C70.8,37.8,70.3,37.7,69.7,37.8z"/>
	<path class="st0" d="M113.9,114.4c-1,0-2-0.1-2-1.5c0-1.4,2.4-3.2,4.3-3.2c1,0,2,0.2,2,1.5C118.2,112.6,115.8,114.3,113.9,114.4z"
		/>
	<path class="st0" d="M223.9,94.8c0.4-0.3,0.7-0.6,1.1-0.8c0.4-0.2,1-0.5,1.2,0.1c0.2,0.5,0.3,1.1-0.5,1.3c-2.3,0.5-2.3,2.3-2.3,4.1
		c0,1.9,0,3.8,0,5.7c0,0.5-0.1,1-0.8,1c-0.7,0-0.7-0.6-0.7-1c0-3.5-0.1-7-0.1-10.5c0-0.8,0.4-0.9,1.1-0.7
		C223.4,94.1,223,95.2,223.9,94.8z"/>
	<path class="st0" d="M75.7,33.2c-1.5-0.4-4,0.3-4-1.7c0-1.6,2.5-1.4,4.1-1.4c1.4,0,3.8-0.1,3.7,1.5C79.5,33.4,77.1,32.9,75.7,33.2z
		"/>
	<path class="st0" d="M98.2,111.2c-0.7,0-1.7,0-1.9-1.2c-0.2-1.4,2.5-3.2,4.7-3.2c0.9,0,1.8-0.1,2,1.1
		C103.1,109.3,100.5,111.1,98.2,111.2z"/>
	<path class="st0" d="M62.2,111.5c-0.7,0-1.5-0.1-1.8-0.8c-0.3-0.8,0.3-1.3,0.9-1.8c1.4-1.1,3-1.8,4.9-1.7c0.5,0,1,0.1,1.2,0.6
		c0.3,0.6,0,1.1-0.4,1.5C65.6,110.7,64,111.3,62.2,111.5z"/>
	<path class="st0" d="M54.7,27.6c-1.4-0.3-3.8,0.3-3.8-1.6c0-1.4,2.4-1.3,3.9-1.2c1.6,0.1,4.1-0.3,4.1,1.5
		C58.9,27.8,56.3,27.4,54.7,27.6z"/>
	<path class="st0" d="M157.2,105.1c-0.1,1.6-2.1,3.2-3.7,3c-1.1-0.1-1.9-0.7-1.7-1.9c0.3-1.9,1.6-2.7,3.4-2.7
		C156.4,103.4,157.1,104,157.2,105.1z"/>
	<path class="st0" d="M254.1,99.9c0,1.7,0,3.3,0,5c0,0.5,0.1,1.2-0.7,1.3c-0.8,0.1-0.8-0.6-0.8-1.2c0-3.3,0-6.7,0-10
		c0-0.6,0-1.2,0.8-1.1c0.8,0.1,0.7,0.7,0.7,1.3C254.1,96.7,254.1,98.3,254.1,99.9z"/>
	<path class="st0" d="M63.5,20.2c1.6,0.3,4.2-0.2,4.1,1.4c0,1.8-2.6,1.2-4,1.2c-1.4,0-3.7,0.3-3.7-1.5
		C59.9,19.9,62.2,20.5,63.5,20.2z"/>
	<path class="st0" d="M57.4,17.6c-1.3,0-2.5-0.1-3.8-0.6c-0.4-0.2-0.9-0.4-0.9-0.9c0-0.6,0.6-0.7,1-0.8c2-0.4,3.9-0.4,5.9,0.2
		c0.5,0.2,1.2,0.3,1.3,0.9c0,0.8-0.8,0.9-1.4,1.1C58.9,17.6,58.1,17.6,57.4,17.6z"/>
	<path class="st0" d="M82.3,16.5c-1.5-0.4-4.1,0-4-1.5c0.2-1.9,2.7-1.2,4.3-1c1.1,0.1,3,0.1,2.9,1.4C85.4,16.9,83.5,16.2,82.3,16.5z
		"/>
	<path class="st0" d="M69.3,25.1c1.5,0.2,3.8-0.2,3.7,1.5c0,1.5-2.3,1.3-3.6,1.2c-1.3-0.1-3.6,0.2-3.6-1.4
		C65.8,24.9,68,25.4,69.3,25.1z"/>
	<path class="st0" d="M72.7,16.6c1.3,0.3,3.8,0,3.6,1.5c-0.1,1.5-2.6,1.2-4.1,1c-1.2-0.2-3.1,0-3-1.5C69.4,16.4,71.3,16.8,72.7,16.6
		z"/>
	<path class="st0" d="M45.7,21.9C45,21.8,44,21.7,43,21.5c-0.5-0.1-1-0.3-0.9-0.9c0-0.6,0.6-0.7,1-0.8c1.7-0.5,3.5-0.5,5.2,0
		c0.6,0.2,1.4,0.2,1.4,1c0,0.8-0.9,0.8-1.5,1C47.5,21.9,46.7,21.9,45.7,21.9z"/>
	<path class="st0" d="M68.1,14.2c-1.5-0.2-4,0.1-4-1.5c0-1.6,2.5-0.8,3.9-1c0.1,0,0.2,0,0.2,0c1.2,0.3,3.2,0,3.1,1.4
		C71.2,14.7,69.3,14,68.1,14.2z"/>
	<path class="st0" d="M167,102.4c1.1,0,2,0.4,2,1.6c0,1.8-1.3,2.5-2.8,2.6c-1.1,0.1-1.9-0.5-1.8-1.7
		C164.4,103.3,165.6,102.7,167,102.4z"/>
	<path class="st0" d="M16.5,39.5c0.7,0.2,2.5-0.4,2.6,1c0.1,1.2-1.7,1-2.7,1.3c-0.5,0.1-0.9,0.2-1.4,0.1c-1.2-0.1-3.2,0.3-3.2-1.1
		c0-1.3,2-1.1,3.2-1.3C15.3,39.5,15.7,39.5,16.5,39.5z"/>
	<path class="st0" d="M93.1,18.6c-1.3-0.3-3.8,0.2-3.7-1.7c0.1-1.5,2.5-0.9,4-0.8c1.1,0.1,2.7,0.1,2.6,1.4
		C95.9,18.8,94.3,18.4,93.1,18.6z"/>
	<path class="st0" d="M77.2,24c-1.3-0.2-3.6,0.2-3.5-1.4c0.1-1.5,2.3-1.1,3.7-1.1c1.2,0.1,3.2,0,3.1,1.4
		C80.4,24.3,78.4,23.7,77.2,24z"/>
	<path class="st0" d="M35,27.4c-1.2-0.5-3.5,0.3-3.5-1.3c0-1.5,2.2-1.2,3.4-1.1c1.3,0,3.5-0.5,3.5,1.2C38.5,27.6,36.2,26.9,35,27.4z
		"/>
	<path class="st0" d="M24.8,34c-1.3-0.2-3.3,0.3-3.4-1c-0.1-1.5,2-1.2,3.1-1.3c1.3-0.1,3.6-0.5,3.7,1C28.2,34,25.9,33.6,24.8,34z"/>
	<path class="st0" d="M90.4,11.7c1.2,0.2,3.6,0,3.5,1.5c-0.2,1.6-2.5,0.8-4,0.8c-0.2,0-0.5-0.1-0.7-0.2c-0.7-0.3-1.9-0.3-1.7-1.3
		c0.1-1,1.2-0.8,2-0.9C89.7,11.7,89.9,11.7,90.4,11.7z"/>
	<path class="st0" d="M7.1,51.1c-1.1,0-2.6,0.2-2.7-0.7c-0.2-1.3,1.4-1.3,2.3-1.5c1.5-0.2,3-0.6,4.4,0.4c0.1,0.1,0.1,0.5,0,0.6
		C10,51,8.4,51,7.1,51.1z"/>
	<path class="st0" d="M99,10.2c1.1,0.4,3.4-0.1,3.3,1.6c-0.2,1.4-2.3,0.9-3.7,0.7c-0.3-0.1-0.6-0.1-0.9-0.2
		c-0.6-0.2-1.4-0.3-1.4-1.1c0-1,1-0.8,1.6-0.9C98.2,10.1,98.5,10.2,99,10.2z"/>
	<path class="st0" d="M122.6,14.1c-1.2-0.2-2.6-0.2-3.5-1.5c-0.1-0.1,0-0.5,0.1-0.6c1.2-0.9,2.6-0.6,3.9-0.2c0.8,0.2,2,0.4,1.8,1.4
		C124.7,14.3,123.5,13.9,122.6,14.1z"/>
	<path class="st0" d="M101.8,21.3c-1.2-0.3-3.4,0.2-3.3-1.6c0.1-1.4,2.3-0.8,3.6-0.7c0.9,0.1,2.2,0.2,2.1,1.4
		C104,21.4,102.8,21.2,101.8,21.3z"/>
	<path class="st0" d="M100.6,16.6c-1.1-0.4-3.3,0.1-3.1-1.6c0.2-1.4,2.3-0.8,3.6-0.7c0.3,0,0.6,0.1,0.9,0.2c0.6,0.2,1.4,0.3,1.4,1.1
		c0,0.8-0.9,0.8-1.5,0.9C101.5,16.6,101.1,16.6,100.6,16.6z"/>
	<path class="st0" d="M108.8,15.3c-1.4-0.2-2.9,0-3.8-1.3c-0.1-0.1-0.1-0.5,0.1-0.6c1.2-0.9,2.6-0.6,3.9-0.3
		c0.8,0.2,1.9,0.3,1.8,1.2C110.7,15.6,109.4,15.1,108.8,15.3z"/>
	<path class="st0" d="M95.6,23.4c-1.1-0.3-2.5,0.5-2.6-1.4c-0.1-1.3,0.7-1.4,1.7-1.3c1.3,0.1,3.2,0,3.4,1.4
		C98.3,23.6,96.5,23.2,95.6,23.4z"/>
	<path class="st0" d="M89.2,9.8c-1.3-0.3-2.6-0.1-3.6-1.1c-0.3-0.3-0.2-0.6,0.1-0.8c1.2-0.7,2.5-0.5,3.7-0.2c0.8,0.2,2.1,0.2,2,1.2
		C91.2,10,89.9,9.6,89.2,9.8z"/>
	<path class="st0" d="M114.3,12c1.3,0.2,2.6,0.1,3.5,1.2c0.2,0.3,0.1,0.6-0.2,0.8c-1.2,0.7-2.4,0.4-3.7,0.1
		c-0.7-0.2-1.8-0.3-1.7-1.3C112.4,11.7,113.6,12.3,114.3,12z"/>
	<path class="st0" d="M81.2,27.6c0.1,1.2-0.1,1.9-1.3,1.6c-1.1-0.2-2.7-0.2-2.6-1.5c0-1.4,1.7-1.3,2.9-1.5
		C81.4,26.1,81.1,27.1,81.2,27.6z"/>
	<path class="st0" d="M120.3,15.6c1.1,0.2,2.2,0.2,3,1.2c0.1,0.1,0,0.5-0.1,0.6c-1,0.7-2.1,0.6-3.2,0.3c-0.8-0.2-2.1-0.3-1.9-1.4
		C118.2,15.3,119.5,15.7,120.3,15.6z"/>
	<path class="st0" d="M77.7,9.3c1.3,0.2,3.5-0.1,3.4,1.3c-0.1,1.6-2.2,0.8-3.4,0.8c-0.9,0-2.3-0.1-2.3-1.1
		C75.4,8.9,76.8,9.5,77.7,9.3z"/>
	<path class="st0" d="M115,18.6c-1.2-0.1-2.4-0.1-3.3-1.1c-0.3-0.3-0.1-0.7,0.2-0.8c1-0.6,2.2-0.5,3.3-0.2c0.8,0.2,2.1,0.3,1.9,1.4
		C116.9,18.7,115.8,18.5,115,18.6z"/>
	<path class="st0" d="M107.7,17.4c1.1,0.2,3.1,0,3,1.5c-0.1,1.3-2,0.8-3.1,0.7c-1,0-2.5-0.1-2.4-1.3
		C105.2,17.1,106.7,17.5,107.7,17.4z"/>
	<path class="st0" d="M129.2,13.8c-1.2-0.1-2.4-0.2-3.2-1.2c-0.2-0.3-0.1-0.6,0.2-0.8c1.1-0.6,2.1-0.3,3.2,0
		c0.8,0.2,1.8,0.4,1.7,1.3C131.1,14.1,129.9,13.6,129.2,13.8z"/>
	<path class="st0" d="M127.2,17.6c-1-0.3-2.2-0.2-3-1.2c-0.2-0.3-0.1-0.6,0.2-0.8c1.1-0.6,2.2-0.4,3.3-0.1c0.7,0.2,1.7,0.4,1.5,1.2
		C129,17.7,128,17.5,127.2,17.6z"/>
	<path class="st0" d="M132.4,15.1c1.1,0.1,2.4,0.2,3.2,1.2c0.2,0.3,0.1,0.6-0.2,0.8c-1.1,0.6-2.2,0.3-3.2,0
		c-0.7-0.2-1.5-0.4-1.4-1.3C130.9,15,131.8,15.2,132.4,15.1z"/>
	<path class="st0" d="M107,9.3c1.2,0.1,2.3,0.1,3,0.9c0.2,0.3,0.2,0.6-0.1,0.8c-1,0.6-2,0.3-3,0.1c-0.7-0.1-1.7-0.2-1.7-1.1
		C105.3,9,106.5,9.5,107,9.3z"/>
	<path class="st0" d="M140.1,17.7c-1.2-0.2-2.6-0.2-2.8-1.5c-0.1-1,1.2-0.8,1.9-0.7c1.1,0.1,2.7,0.1,2.8,1.5
		C142,17.9,140.7,17.5,140.1,17.7z"/>
	<path class="st0" d="M135.7,13.9c-1.2-0.2-2.8,0-3.1-1.4c-0.2-0.9,1-0.8,1.6-0.7c1.2,0,2.6,0,2.9,1.4
		C137.3,13.9,136.2,13.7,135.7,13.9z"/>
	<path class="st0" d="M116.1,10.8c-0.9-0.4-2.5,0.1-2.8-1.4c-0.2-0.7,0.9-0.6,1.5-0.6c1.1,0,2.6-0.1,2.9,1.3
		C117.9,10.6,116.8,10.8,116.1,10.8z"/>
	<path class="st0" d="M97.8,6.4c1,0.2,2.3,0,2.5,1.3c0.1,0.7-1.1,0.7-1.8,0.6c-1-0.2-2.4,0-2.6-1.2C95.8,6,97.1,6.7,97.8,6.4z"/>
	<path class="st0" d="M146.8,14.8c-1-0.2-2.3-0.1-2.4-1.4c-0.1-0.7,0.9-0.7,1.5-0.7c1,0.1,2.3,0.1,2.5,1.4
		C148.4,14.9,147.4,14.7,146.8,14.8z"/>
	<path class="st0" d="M141.3,14.2c-1-0.2-2.3-0.1-2.6-1.3c-0.3-0.9,0.8-0.7,1.4-0.7c1,0,2.3,0,2.6,1.2C143,14.2,142,14.1,141.3,14.2
		z"/>
	<path class="st0" d="M177.9,19.3c0.5,0.7,1.2,0.6,1.9,0.8c0.9,0.2,1.9,0.5,1.8,1.8l0,0c-1.3,0.3-2.6,0.4-3.4-0.8
		c-0.7-1-1.8-0.2-2.5-1C176.4,19.2,177.2,19.4,177.9,19.3z"/>
	<path class="st0" d="M123.7,10.5c-1.1-0.2-2.5,0-2.8-1.3c-0.1-0.7,0.9-0.7,1.5-0.6c1,0.1,2.3,0,2.6,1.2
		C125.3,10.6,124.2,10.3,123.7,10.5z"/>
	<path class="st0" d="M137.3,11c-1-0.2-2.3,0-2.6-1.3c-0.1-0.6,0.8-0.7,1.3-0.6c1,0.1,2.3,0,2.6,1.2C138.9,11.1,137.8,10.8,137.3,11
		z"/>
	<path class="st0" d="M167,19.6c-1.1-0.2-2.3-0.3-2.4-1.4c-0.1-0.9,0.9-0.7,1.4-0.7c0.9,0.1,2.1,0.2,2.3,1.3
		C168.4,19.8,167.4,19.5,167,19.6z"/>
	<path class="st0" d="M152.1,15.6c-1-0.1-2.3-0.2-2.5-1.3c-0.2-0.8,0.9-0.6,1.5-0.6c1,0,2.1,0.1,2.4,1.2
		C153.8,15.7,152.7,15.5,152.1,15.6z"/>
	<path class="st0" d="M187,24.6c1,0.2,2.1,0.3,2.1,1.5c0,0.7-0.8,0.6-1.3,0.5c-0.9-0.1-2-0.3-2-1.5C185.7,24.5,186.6,24.8,187,24.6z
		"/>
	<path class="st0" d="M161.8,18c-0.7-0.4-2-0.2-2.1-1.4c0-0.7,0.8-0.7,1.3-0.6c0.9,0.3,2.2,0.2,2.4,1.4
		C163.5,18.1,162.5,18,161.8,18z"/>
	<path class="st0" d="M22.3,73.2c-0.1,1.1,0.5,1.5,1.5,1.5c1.8,0,3.6,0,5.4,0c-2,0.8-4.1,1.1-6.2,0.5C21.8,74.9,21.1,74.4,22.3,73.2
		z"/>
	<path class="st0" d="M157.3,16.7c-0.9-0.1-2.1-0.1-2.4-1.2c-0.2-0.7,0.7-0.9,1.2-0.8c1,0.2,2.3,0,2.5,1.3
		C158.7,16.9,157.8,16.6,157.3,16.7z"/>
	<path class="st0" d="M181.7,21.8c0.2,0,0.5,0.1,0.7,0.1c1.1,0,2.3,0,2.7,1.3c0.2,0.6-0.4,0.8-0.9,0.7
		C182.8,23.9,181.7,23.5,181.7,21.8C181.7,21.8,181.7,21.8,181.7,21.8z"/>
	<path class="st0" d="M145.2,9.3c-0.7-0.3-1.9-0.1-1.9-1.3c0-0.7,0.8-0.6,1.3-0.5c0.8,0.2,1.9,0.1,1.9,1.2
		C146.6,9.5,145.8,9.3,145.2,9.3z"/>
	<path class="st0" d="M117.7,6.9c-0.4,0.1-0.8,0.2-1.2,0.2c-1,0-1.9,0-2.7-0.8c-0.1-0.1-0.1-0.5,0-0.6c1-0.5,2-0.3,3,0.1
		C117.2,6,117.6,6.1,117.7,6.9z"/>
	<path class="st0" d="M159.8,14.6c-0.7-0.3-1.9-0.2-2-1.3c-0.1-0.7,0.8-0.6,1.3-0.6c0.8,0.1,1.7,0.2,1.9,1.1
		C161.2,14.6,160.4,14.5,159.8,14.6z"/>
	<path class="st0" d="M190.3,23.7c0.8,0.1,1.7,0.3,2,1.3c0.1,0.6-0.5,0.7-1,0.7c-0.9,0-1.8-0.3-2-1.3
		C189.1,23.9,189.7,23.7,190.3,23.7z"/>
	<path class="st0" d="M130.6,10.5c-0.9-0.2-2.1-0.1-2.3-1.1c-0.1-0.9,0.9-0.6,1.5-0.6c0.8,0,2,0,2.1,1.1
		C131.9,10.7,131,10.3,130.6,10.5z"/>
	<path class="st0" d="M106.7,5.8c0.8,0.3,2.2-0.1,2.3,1.1c0.1,0.8-0.9,0.6-1.5,0.6c-0.9-0.1-2.1,0-2.2-1.1
		C105.3,5.7,106.2,5.9,106.7,5.8z"/>
	<path class="st0" d="M123.4,5.6c0.6,0.2,1.8,0,2.1,1.1c0.1,0.4-0.7,0.7-1.1,0.6c-0.9-0.2-2.1,0-2.3-1.2
		C122,5.7,122.7,5.5,123.4,5.6z"/>
	<path class="st0" d="M195.1,93.9c0,3.4,0,6.8,0,10.1C194.5,100.7,194.3,97.3,195.1,93.9z"/>
	<path class="st0" d="M196.5,103.9c-0.9-3.3-0.2-6.6-0.4-9.9C196.8,97.3,196.1,100.6,196.5,103.9z"/>
	<path class="st0" d="M164,14c0.9,0.2,1.9,0.2,1.8,1.3c0,0.7-0.8,0.7-1.3,0.6c-0.8-0.2-1.8-0.2-1.8-1.2
		C162.6,13.7,163.6,14.2,164,14z"/>
	<path class="st0" d="M149.1,12.3c-0.7-0.2-1.7-0.2-1.8-1.1c-0.1-0.7,0.7-0.7,1.3-0.5c0.7,0.2,1.8,0.1,1.8,1.1
		C150.5,12.5,149.6,12.2,149.1,12.3z"/>
	<path class="st0" d="M198.1,30.1c0,0.7-0.4,0.8-0.9,0.8c-0.8,0-1.6-0.3-1.9-1.2c-0.2-0.6,0.4-0.8,0.9-0.8
		C197,29,197.7,29.3,198.1,30.1z"/>
	<path class="st0" d="M177.9,19.3c-0.5,0.9-1.4,0.6-2.1,0.7c-0.9-0.1-1.2-0.7-1.3-1.5l0,0C175.7,18.4,177,18.1,177.9,19.3z"/>
	<path class="st0" d="M179.2,17.1c0.7,0.2,1.6,0.3,1.9,1.2c0.2,0.6-0.5,0.7-1,0.7c-0.8-0.1-1.7-0.2-1.9-1.1
		C178,17.3,178.6,17.1,179.2,17.1z"/>
	<path class="st0" d="M174.5,18.5c-0.2,0-0.3,0-0.5,0.1c-1.1,0.2-2.2,0.2-2.9-0.9c-0.2-0.3,0.1-0.7,0.4-0.7
		C172.9,16.8,174.1,16.9,174.5,18.5C174.5,18.5,174.5,18.5,174.5,18.5z"/>
	<path class="st0" d="M171.2,14.2c0.6,0.3,1.7,0.2,1.8,1.2c0,0.6-0.6,0.6-1.1,0.6c-0.7-0.1-1.5-0.2-1.7-1.1
		C170.1,14.3,170.6,14.2,171.2,14.2z"/>
	<path class="st0" d="M152.5,11.9c1.5-0.5,2.7-0.5,3.6,1.1C154.6,13.4,153.4,13.5,152.5,11.9z"/>
	<path class="st0" d="M230.1,90.1c0,0.6-0.2,1.1-0.9,1.1c-0.7,0-0.9-0.5-0.9-1.1c0-0.6,0.1-1.1,0.9-1.1
		C229.9,89,230.1,89.5,230.1,90.1z"/>
	<path class="st0" d="M144.9,11.1c-1.5,0.4-2.6,0.5-3.4-0.4c-0.3-0.3,0-0.7,0.3-0.7C142.9,9.7,143.9,9.8,144.9,11.1z"/>
	<path class="st0" d="M253.3,89.1c0.8,0,0.8,0.6,0.8,1.2c0,0.7-0.3,1-1,1c-0.8,0-0.8-0.6-0.8-1.2C252.3,89.3,252.6,89,253.3,89.1z"
		/>
	<path class="st0" d="M170.2,16.5c-0.3,0.8-0.9,0.6-1.4,0.6c-0.7-0.1-1.6-0.3-1.7-1.1c0-0.9,0.9-0.7,1.5-0.6
		C169.3,15.5,170,15.8,170.2,16.5z"/>
	<path class="st0" d="M305.6,89.1c0.8,0,0.9,0.5,0.9,1.1c0,0.6-0.2,1.1-0.9,1.1c-0.7,0-0.9-0.5-0.9-1.1
		C304.6,89.5,304.8,89,305.6,89.1z"/>
	<path class="st0" d="M151,8.7c0.7,0.1,1.6,0.1,1.6,1c0,0.7-0.7,0.7-1.3,0.6c-0.7-0.1-1.6-0.1-1.6-1C149.6,8.5,150.5,8.8,151,8.7z"
		/>
	<path class="st0" d="M158.4,11c-0.5,0.7-1.1,0.4-1.7,0.3c-0.6-0.1-1.5-0.2-1.3-1c0.2-0.8,1-0.5,1.6-0.4
		C157.6,10.1,158.2,10.2,158.4,11z"/>
	<path class="st0" d="M183.1,19.1c0.7,0.2,1.6,0.2,1.9,1.1c0.2,0.6-0.4,0.8-0.9,0.7c-0.8,0-1.6-0.2-1.9-1
		C182,19.3,182.6,19.2,183.1,19.1z"/>
	<path class="st0" d="M177.3,16.4c0,0.5-0.4,0.7-0.8,0.6c-0.8-0.1-1.6-0.2-1.9-1.1c-0.1-0.4,0.4-0.7,0.8-0.6
		C176.1,15.5,176.9,15.6,177.3,16.4z"/>
	<path class="st0" d="M187.9,23c-0.7-0.1-1.5-0.2-1.8-1c-0.2-0.7,0.4-0.8,0.9-0.7c0.7,0.1,1.5,0.2,1.7,1C189,23,188.4,23,187.9,23z"
		/>
	<path class="st0" d="M161.7,11.3c0.7,0.1,1.5,0.1,1.7,0.9c0.2,0.7-0.5,0.6-0.9,0.6c-0.7,0-1.5-0.2-1.8-0.9
		C160.5,11.2,161.2,11.3,161.7,11.3z"/>
	<path class="st0" d="M136.6,7.2c1.3-0.5,2.3-0.5,3.2,0.3c0.3,0.3,0.2,0.7-0.1,0.8C138.5,8.6,137.6,8.2,136.6,7.2z"/>
	<path class="st0" d="M193.5,26.5c0.7,0.1,1.4,0.2,1.6,0.9c0.1,0.7-0.5,0.7-0.9,0.7c-0.6-0.1-1.3-0.3-1.4-1
		C192.7,26.5,193.2,26.6,193.5,26.5z"/>
	<path class="st0" d="M133,7.2c-1.3,0.4-2.2,0.5-3.2-0.5C131.1,5.9,131.9,6.3,133,7.2z"/>
	<path class="st0" d="M165.8,13.3c0.2-0.7,0.8-0.5,1.2-0.4c0.5,0.2,1.2,0.2,1.2,0.9c-0.1,0.6-0.7,0.4-1.1,0.4
		C166.5,14.1,165.9,14,165.8,13.3z"/>
	<path class="st0" d="M25.2,71.8c-0.8,0.8-1.8,1.3-2.9,1.4C23,72.2,24,71.8,25.2,71.8z"/>
	<path class="st0" d="M223.9,94.8c0,0.3-0.1,0.8-0.4,0.7c-0.9-0.2-0.4-1-0.6-1.6C223.5,93.9,223.3,94.9,223.9,94.8z"/>
	<path class="st0" d="M200.9,103.4c0,1-0.5,1.5-1.6,1.5C199.8,104.3,200.3,103.9,200.9,103.4z"/>
	<path class="st0" d="M382.4,22.1c0-1.2-0.2-1.7-1.6-1.7c-6.1-0.3-6.1-0.3-6.1,5.8c0,0.6,0,1.3,0,1.9c0,5,0,10,0,15.2
		c-10.4-7.4-20.5-6.6-28.3,2c-6.7,7.4-6.9,19.4-0.3,27.1c7.5,8.8,17.7,9.7,28.3,2.6c0.6,3.9,0.6,3.9,4.8,3.9c0.5,0,1,0,1.4,0
		c1.4,0.2,1.8-0.4,1.8-1.8C382.4,58.7,382.4,40.4,382.4,22.1z M362.1,71.9c-7.2-0.1-13-5.8-12.9-13c0-7.1,5.9-12.8,13-12.9
		c6.5-0.1,13.6,6.1,12.5,13.1C375.7,65.3,369.3,72,362.1,71.9z"/>
	<g>
		<path class="st1" d="M319,50.2c1-1,3.2-2.1,2.6-3.3c-0.6-1.4-2.9-0.7-4.1-0.9c-9.3,0-15.6,8.1-13.4,16.8c0.5,2,1.2,1.1,2,0.3
			C310.4,58.9,314.7,54.6,319,50.2z"/>
		<path class="st0" d="M317.4,37.6c0.2-0.1,0.4-0.3,0.6-0.5c2.9-3.1,5.8-6.2,9.1-9.6c-3.2,0-5.7,0-8.2,0c-0.6,0-1.1,0.1-1.5,0.6
			c-2.4,3.1-4.8,6.2-7.6,9.7c1.7,0,2.8,0,3.9,0c0.2,0,0.4,0,0.7,0C315.4,37.4,316.4,37.4,317.4,37.6z"/>
		<path class="st0" d="M332,67.3c-0.8-0.3-1.7-0.5-2.5-0.9c-1.2-0.6-2-0.3-2.9,0.7c-3.7,4.5-8.6,5.5-14.1,4.3
			c-0.8-0.2-2-0.2-2.2-1.2c-0.2-0.8,0.8-1.3,1.3-1.8c6.8-6.8,13.5-13.6,20.4-20.3c1.3-1.3,1.2-2,0-3.3c-3.4-3.8-7.7-5.8-12.7-6.7
			c-0.7-0.1-1.4-0.4-2.1-0.5c-0.9,0.6-2,0.3-3,0.2c-0.2,0.1-0.4,0.2-0.7,0.4c-0.1,0.1-0.2,0.1-0.4,0.1c-1.3,0.3-2.7,0.4-3.9,1
			c-0.3,0.2-0.7,0.4-1,0.6c-8.5,4-13.1,11.8-12.4,21.1c0.6,8,6.5,15.5,14.2,17.9c8.7,2.7,17.4,0,23.1-7.3
			C335.6,68.6,335.6,68.6,332,67.3z M306.1,63.2c-0.8,0.8-1.5,1.7-2-0.3c-2.2-8.7,4-16.9,13.4-16.8c1.3,0.2,3.6-0.4,4.1,0.9
			c0.5,1.2-1.6,2.3-2.6,3.3C314.7,54.6,310.4,58.9,306.1,63.2z"/>
		<path class="st0" d="M317.4,37.6c-1-0.2-2-0.3-3,0.2C315.4,37.9,316.5,38.3,317.4,37.6z"/>
	</g>
	<path class="st0" d="M453.6,38.1c-11.7,0-20.8,9.1-20.8,20.9c0,11.6,9.1,20.7,20.7,20.8c11.6,0.1,20.9-9.2,20.9-20.8
		C474.5,47.3,465.3,38.1,453.6,38.1z M453.7,71.9c-7.2,0-13-5.7-13-12.9c0-7.1,5.6-12.8,12.8-12.9c7.2-0.1,13,5.6,13.1,12.8
		C466.6,66,460.9,71.8,453.7,71.9z"/>
	<path class="st0" d="M203,38.1c-11.6,0-20.8,9.1-20.8,20.6c0,11.7,9,21,20.6,21.1c11.6,0.1,20.9-9.2,21-20.8
		C223.9,47.4,214.7,38.2,203,38.1z M202.9,71.9c-7.1,0-12.8-5.7-12.9-12.8C190,52,195.9,46,203,46c7.2,0,13,5.8,13,12.9
		C216,66.1,210.1,71.9,202.9,71.9z"/>
	<path class="st0" d="M473.5,93.1c-1.4-3.3-4.5-3.7-7.7-3.7c-1.4,0-2,0.3-1.9,1.9c0.1,2.2,0,4.3,0,6.5c0,2.3,0,4.6,0,7
		c0,0.7-0.2,1.6,0.9,1.6c2.8,0.1,5.7,0,7.6-2.5C475,100.4,475.1,96.7,473.5,93.1z M472.1,101.3c-0.6,1.5-1.6,2.5-3.1,3.1
		c-2.5,0.8-3.3,0.3-3.3-2.3c0-1.4,0-2.9,0-4.3c0-1.7,0.1-3.4,0-5c-0.1-1.6,0.6-1.9,2-1.7c2.6,0.3,4.2,1.5,4.8,4
		C472.9,97,472.9,99.2,472.1,101.3z"/>
	<path class="st0" d="M439.3,89.4c-1,0.1-1.4,0.4-1.4,1.4c0.1,2.3,0,4.6,0,6.9c0,2.3,0.1,4.6,0,6.9c0,1.2,0.3,1.6,1.6,1.7
		c5.7,0.2,9-3.1,8.8-9.1C448.2,91.6,445.1,89,439.3,89.4z M446,101.1c-0.6,1.6-1.8,2.8-3.5,3.3c-2.6,0.6-3.1,0.2-3.1-2.4
		c0-1.4,0-2.9,0-4.3c0-1.8,0.1-3.5,0-5.3c-0.1-1.3,0.5-1.6,1.7-1.5c2.9,0.2,4.7,1.6,5.2,4.3C446.8,97.2,446.8,99.2,446,101.1z"/>
	<path class="st0" d="M429.9,104.7c-0.8-2.1-1.5-4.2-2.4-6.2c-0.3-0.6-0.3-0.8,0.2-1.3c2-2,2.3-4.3,1-6.2c-1-1.4-5.1-2.3-6.9-1.6
		c-0.9,0.3-0.6,1-0.6,1.6c0,2.2,0,4.5,0,6.7c0,2.4,0,4.8,0,7.2c0,0.5-0.1,1.2,0.7,1.3c1,0.1,0.9-0.7,0.9-1.3c0-1.6,0.1-3.2,0-4.8
		c-0.1-1.9,1-1.9,2.3-1.6c1,0.2,1.3,1.1,1.6,1.9c0.6,1.7,1.2,3.3,1.8,5c0.3,0.7,0.8,1.1,1.5,0.8
		C430.7,105.8,430.1,105.2,429.9,104.7z M424.4,96.9c-2.7,0.2-1.3-1.9-1.8-3c0.5-1-1-3.1,1.7-3c1.9,0.1,3.3,0.6,3.4,2.8
		C427.8,95.6,426.5,96.8,424.4,96.9z"/>
	<path class="st0" d="M327.7,89.4c0-0.5,0.1-1.2-0.7-1.3c-1,0-0.8,0.8-0.8,1.4c0,1.6,0,3.2,0,5c-4.1-1.8-6.5-0.5-7.1,3.7
		c-0.3,1.9-0.1,3.8,0.7,5.6c0.7,1.8,2.1,2.5,4,2.3c1.1-0.1,2-1.6,3.3-0.2c0.3,0.3,0.7-0.3,0.7-0.9C327.8,100,327.8,94.7,327.7,89.4z
		 M326.2,100c0,3.2-0.9,4.8-2.7,4.9c-1.8,0.1-2.8-1.6-2.8-4.7c0-0.6,0-1.3,0.1-1.9c0.3-1.6,0.7-3.1,2.7-3c1.9,0.1,2.4,1.5,2.6,3.1
		C326.2,98.9,326.2,99.5,326.2,100z"/>
	<path class="st0" d="M461.9,105.3c-0.1-0.3-0.2-0.6-0.3-0.9c-1.5-4.5-2.9-8.9-4.4-13.4c-0.2-0.7-0.2-1.6-1.4-1.6
		c-1.1,0-1.2,0.9-1.4,1.6c-1.5,4.4-2.9,8.8-4.3,13.2c-0.2,0.6-1.2,1.6,0.1,1.9c1.1,0.3,1.3-0.8,1.4-1.5c0.4-2.4,1.6-3.1,4.1-3.1
		c2.5,0,4.1,0.5,4.5,3.2c0.1,0.4,0.3,1,0.6,1.3c0.2,0.2,0.8,0.2,1.1,0.1C462,106.1,462,105.7,461.9,105.3z M457.1,100.1
		c-4.3,0.4-4.4,0.4-3.1-3.8c0.5-1.4,0.9-2.9,1.4-4.3c0.2,0,0.3,0,0.5,0c0.7,2.3,1.4,4.5,2.1,6.8C458.4,99.7,458.1,100,457.1,100.1z"
		/>
	<path class="st0" d="M297.9,104.5c-1.5-4.5-3-9.1-4.5-13.6c-0.2-0.6-0.3-1.4-1.3-1.5c-1.1,0-1.2,0.9-1.4,1.6
		c-1.5,4.4-3,8.8-4.4,13.1c-0.2,0.6-1.2,1.6,0.1,2c1.1,0.4,1.3-0.8,1.4-1.5c0.4-2.5,1.7-3.7,4.3-2.9c2.9-1,3.8,0.7,4.3,3.1
		c0.1,0.7,0.3,1.6,1.3,1.3C298.9,105.9,298.1,105,297.9,104.5z M294.2,100c-4.9,0.2-4.9,0.2-3.4-4.6c0.4-1.1,0.7-2.2,1.1-3.3
		c0.2,0,0.3,0,0.5,0c0.8,2.5,1.6,5.1,2.4,7.6C294.4,99.9,294.3,100,294.2,100z"/>
	<path class="st0" d="M265,96.4c-0.7-2-2.2-2.9-4.3-2.6c-1,0.1-2,1.6-3.2,0.1c-0.2-0.2-0.8,0.1-0.7,0.6c0,0.2,0,0.5,0,0.7
		c0,4.7,0,9.4,0,14.1c0,0.7-0.5,1.9,0.8,1.8c1.3-0.1,0.7-1.2,0.7-1.9c0.1-1.2,0-2.4,0-3.8c4.1,1.7,6.1,0.6,6.9-3.5
		C265.8,100.1,265.7,98.2,265,96.4z M263.8,101.4c-0.2,1.7-0.6,3.6-2.8,3.5c-2.1-0.1-2.5-1.9-2.6-3.6c0-0.4,0-0.8,0-1.2
		c0-3.2,0.9-4.7,2.7-4.8c1.8,0,2.8,1.6,2.8,4.7C264,100.4,263.9,100.9,263.8,101.4z"/>
	<path class="st0" d="M213.9,89.4c-0.5,0.7-2.5-1-2.5,1.1c-0.1,4.9,0,9.7,0,14.6c0,0.6,0.1,1.1,0.9,1.1c0.8-0.1,0.7-0.7,0.7-1.2
		c0-1.4,0.1-2.7,0-4.1c-0.1-1.4,0.3-1.9,1.8-2c3.3-0.2,4.7-1.5,4.9-4.1C220,91.1,218.3,89.4,213.9,89.4z M214.6,97.3
		c-1.6,0-1.6,0-1.6-3.5c0.7-0.8-1.3-3,1.5-3c2.4,0,3.6,1.1,3.6,3.2C218,96.2,216.8,97.4,214.6,97.3z"/>
	<path class="st0" d="M316.9,101.1c0-1.1,0-2.2,0-3.3c-0.1-3.4-2.6-5-5.8-3.7c-0.6,0.2-1.6,0.4-1.3,1.4c0.4,1.4,1.1,0.1,1.6,0
		c0.7-0.2,1.4-0.3,2.1-0.2c1.3,0.3,1.8,1.3,1.8,2.5c0.1,1.6-1.2,0.8-1.9,1c-0.9,0.3-1.9,0.3-2.8,0.7c-1.9,0.8-2.4,2.5-1.9,4.4
		c0.5,1.9,1.8,2.6,3.8,2.6c1.2,0,2.3-1.8,3.8-0.2c0.3,0.3,0.6-0.5,0.6-1c0-1.4,0-2.7,0-4.1C316.9,101.1,316.9,101.1,316.9,101.1z
		 M315.5,101.5c-0.2,2.1-1.5,3.6-3.1,3.4c-1.4-0.1-2.2-1-2-2.4c0.2-2.2,2-2.3,3.7-2.4C315.3,100,315.7,100.5,315.5,101.5z"/>
	<path class="st0" d="M275.3,103.9c0.2-0.9,0-1.9,0-2.9c0,0,0,0,0,0c0-1.3,0-2.5,0-3.8c-0.1-1.4-0.6-2.7-2-3.2
		c-1.6-0.5-3.1-0.4-4.6,0.5c-0.5,0.3-0.7,0.7-0.5,1.2c0.3,0.7,0.8,0.3,1.2,0c0.8-0.4,1.6-0.6,2.5-0.5c1.4,0.2,1.8,1.2,1.9,2.4
		c0.1,1.6-1.1,0.9-1.8,1.1c-0.7,0.1-1.4,0.2-2.1,0.4c-2.3,0.7-3.3,2.7-2.6,4.9c0.7,2.1,2.9,2.9,5.1,2c0.4-0.2,1-0.7,1.2-0.6
		C276.5,107.4,275.2,104.6,275.3,103.9z M273.9,101.2c0.1,2.2-1.2,3.7-2.9,3.7c-1.5,0-2.3-0.9-2.2-2.3c0.1-2.1,1.7-2.4,3.4-2.5
		C273.2,100.1,274.2,99.9,273.9,101.2z"/>
	<path class="st0" d="M335.6,93.8c-3.1-0.6-5.2,1-5.6,4.6c-0.6,4.7,1,7.8,4.3,7.9c3.1,0.2,4.9-2,4.9-6.2
		C339.1,96.5,337.9,94.3,335.6,93.8z M337.3,102.2c-0.3,1.4-1,2.6-2.6,2.7c-1.8,0.1-2.6-1.1-2.9-2.6c-0.2-0.8-0.2-1.6-0.3-2.3
		c0.1-0.8,0.1-1.5,0.3-2.2c0.4-1.5,1.1-2.7,2.9-2.6c1.7,0.1,2.3,1.3,2.6,2.7C337.6,99.3,337.6,100.7,337.3,102.2z"/>
	<path class="st0" d="M350.4,100.6c0.9-0.1,1.9-0.1,2.9,0c1.1,0.1,1.4-0.5,1.3-1.4c-0.1-0.9-0.2-1.7-0.4-2.6
		c-0.4-1.5-1.2-2.6-2.9-2.8c-1.8-0.2-3.1,0.4-4,2c-0.8,1.3-1,2.8-0.9,5c0,0,0,0.5,0.1,1.1c0.5,3.5,3.1,5.3,6.2,4.4
		c0.7-0.2,1.6-0.4,1.3-1.4c-0.3-1-1-0.3-1.5-0.1c-1,0.3-1.9,0.3-2.8-0.3c-1.2-0.8-1.8-2-1.6-3.3C348.2,99.9,349.6,100.7,350.4,100.6
		z M350.5,95.2c1.9-0.1,2.4,1.5,2.4,2.9c0,2.1-1.8,0.2-2.4,1.3c-0.9-0.8-2.5,0.7-2.5-1.2C348,96.8,348.7,95.3,350.5,95.2z"/>
</g>
</svg>
