<svg xmlns="http://www.w3.org/2000/svg" width="121.155" height="31.964" viewBox="0 0 121.155 31.964">
  <g id="Group_10" data-name="Group 10" transform="translate(-369 -151)">
    <text id="Powered_by" data-name="Powered by" transform="translate(417 157)" fill="#8d8d8d" font-size="7" font-family="ArialMT, Arial"><tspan x="-47.452" y="0">POWERED BY</tspan></text>
    <g id="Group_9" data-name="Group 9">
      <g id="olimpia_color" transform="translate(370.406 161)">
        <path id="Trazado_58" d="M259.565,15.058h.243a5.936,5.936,0,1,0-6.145-5.932v5.932h5.9ZM250.5,9.1h0a9.1,9.1,0,1,1,9.1,9.1h-6.054v1.643c0,1.034-1.278,2.129-3.042,2.129V9.1" transform="translate(-174.296)" fill="#0047a7"/>
        <path id="Trazado_59" d="M3.164,9.1A5.947,5.947,0,1,0,9.126,3.164h0A5.927,5.927,0,0,0,3.164,9.1h0M0,9.1H0a9.1,9.1,0,1,1,9.1,9.1A9.1,9.1,0,0,1,0,9.1" fill="#0047a7"/>
        <path id="Trazado_60" d="M66.5.5V9.657c0,3.742,3.894,8.67,7.818,8.67h6.51c0-1.369-1.43-3.012-2.434-3.012H74.653c-1.825,0-5.08-2.8-5.08-5.567V2.66C69.542,1.626,68.264.5,66.5.5" transform="translate(-46.27 -0.348)" fill="#0047a7"/>
        <path id="Trazado_61" d="M120.111,0c-1.764,0-3.042,1.126-3.042,2.129v6.48a1.719,1.719,0,0,0,0,.4v.548a1.02,1.02,0,0,0,0-.3v8.944c1.764,0,3.042-1.126,3.042-2.129V8.639a1.02,1.02,0,0,0,0,.3V0Z" transform="translate(-81.447)" fill="#0047a7"/>
        <path id="Trazado_62" d="M134,18.326V9.17C134,5.428,137.894.5,141.818.5h2.829c2.434,0,4.806,1.856,6.3,4.2,1.491-2.312,3.894-4.2,6.327-4.2h2.342c3.924,0,7.818,4.928,7.818,8.67v9.157c-1.764,0-3.042-1.126-3.042-2.129V9.079c0-2.768-3.285-5.567-5.08-5.567h-1.7c-1.825,0-5.08,2.8-5.08,5.567V16.2a.67.67,0,0,1-.03.243v1.916c-1.764,0-3.042-1.126-3.042-2.129V9.079c0-2.768-3.285-5.567-5.08-5.567h-2.19c-1.825,0-5.111,2.8-5.111,5.567V16.2c-.03,1-1.308,2.129-3.072,2.129" transform="translate(-93.236 -0.348)" fill="#0047a7"/>
        <path id="Trazado_63" d="M317,.5c1.764,0,3.042,1.126,3.042,2.129V18.722c-1.764,0-3.042-1.126-3.042-2.129V9.139a1.02,1.02,0,0,1,0,.3V.5Z" transform="translate(-220.567 -0.348)" fill="#0047a7"/>
        <path id="Trazado_64" d="M342.9,15.058h5.962V9.1a5.932,5.932,0,1,0-6.145,5.932Zm9.1-5.962h0v4.35a1.721,1.721,0,0,1,0,.4v.548a1.019,1.019,0,0,1,0-.3v4.107h-9.1a9.1,9.1,0,1,1,9.1-9.1h0" transform="translate(-232.256)" fill="#0047a7"/>
      </g>
    </g>
  </g>
</svg>
